<?xml version="1.0" encoding="utf-8"?>
<!-- Generator: Adobe Illustrator 23.0.1, SVG Export Plug-In . SVG Version: 6.00 Build 0)  -->
<svg version="1.1" id="Capa_1" xmlns="http://www.w3.org/2000/svg" xmlns:xlink="http://www.w3.org/1999/xlink" x="0px" y="0px"
	 viewBox="0 0 334.5 309.6" style="enable-background:new 0 0 334.5 309.6;" xml:space="preserve">
<style type="text/css">
	.st0{fill:url(#SVGID_1_);}
</style>
<linearGradient id="SVGID_1_" gradientUnits="userSpaceOnUse" x1="0" y1="154.792" x2="334.5004" y2="154.792">
	<stop  offset="0" style="stop-color:#8F15FF"/>
	<stop  offset="0.1401" style="stop-color:#8D19FF"/>
	<stop  offset="0.2861" style="stop-color:#8826FF"/>
	<stop  offset="0.435" style="stop-color:#7F3BFF"/>
	<stop  offset="0.5859" style="stop-color:#7358FF"/>
	<stop  offset="0.7381" style="stop-color:#637EFF"/>
	<stop  offset="0.8895" style="stop-color:#4FABFF"/>
	<stop  offset="1" style="stop-color:#3FD1FF"/>
</linearGradient>
<path class="st0" d="M332.8,1.2c-1.5-1.3-3.6-1.6-5.4-0.8L2.9,151.2C1.1,152,0,153.8,0,155.7s1.1,3.7,2.8,4.5l91.8,45.1
	c1.7,0.8,3.7,0.6,5.2-0.5l89.3-66.7L119,210.2c-1,1-1.5,2.4-1.4,3.9l7,90.9c0.2,2,1.5,3.7,3.4,4.4c0.5,0.2,1,0.2,1.6,0.2
	c1.4,0,2.8-0.6,3.8-1.7l48.7-56.5l60.3,28.8c1.3,0.6,2.8,0.7,4.2,0.1c1.3-0.6,2.3-1.7,2.8-3.1l85-270.6
	C334.9,4.6,334.3,2.5,332.8,1.2z"/>
</svg>
