<?xml version="1.0" encoding="utf-8"?>
<!-- Generator: Adobe Illustrator 21.1.0, SVG Export Plug-In . SVG Version: 6.00 Build 0)  -->
<svg version="1.1" id="Layer_1" xmlns="http://www.w3.org/2000/svg" xmlns:xlink="http://www.w3.org/1999/xlink" x="0px" y="0px"
	 viewBox="0 0 300 300" style="enable-background:new 0 0 300 300;" xml:space="preserve">
<style type="text/css">
	.st0{fill:#00C2E0;}
	.st1{fill:#FFFFFF;}
</style>
<path class="st0" d="M150,0C67.2,0,0,67.2,0,150s67.2,150,150,150s150-67.2,150-150S232.8,0,150,0z"/>
<path class="st1" d="M137.3,105.6c3.6-2.8,8.6-4.1,14.9-4.1c6.3,0,11.2,1.6,14.8,4.9c3.6,3.3,5.5,7.9,5.5,13.9h35.1
	c0-8.9-2.3-16.8-6.9-23.8c-4.7-6.9-11.1-12.3-19.5-16c-8.4-3.7-17.8-5.6-28.3-5.6c-10.7,0-20.5,1.7-29.1,5.2s-15.3,8.3-20,14.5
	c-4.7,6.2-7.1,13.4-7.1,21.4c0,16.2,9.5,29,28.4,38.3c5.8,2.9,13.3,5.8,22.5,9c9.1,3,15.6,6.1,19.2,9c3.6,2.9,5.5,6.9,5.5,12
	c0,4.6-1.7,8.1-5.1,10.6c-3.4,2.5-8,3.8-13.8,3.8c-9.1,0-15.6-1.9-19.7-5.6c-4.1-3.7-6.1-9.5-6.1-17.3H92.4c0,9.6,2.5,18.2,7.3,25.5
	s12.1,13.2,21.7,17.5c9.6,4.2,20.3,6.3,32.1,6.3c16.8,0,30-3.6,39.7-10.9c9.6-7.3,14.5-17.3,14.5-30.1c0-16-7.9-28.5-23.7-37.6
	c-6.5-3.7-14.8-7.3-24.9-10.5c-10.1-3.2-17.2-6.4-21.1-9.5s-6-6.4-6-10.1C131.8,112,133.7,108.4,137.3,105.6z"/>
</svg>
