<?xml version="1.0" encoding="utf-8"?>
<!-- Generator: Adobe Illustrator 22.0.1, SVG Export Plug-In . SVG Version: 6.00 Build 0)  -->
<svg version="1.1" id="Layer_1" xmlns="http://www.w3.org/2000/svg" xmlns:xlink="http://www.w3.org/1999/xlink" x="0px" y="0px"
	 width="9px" height="10px" viewBox="0 0 9 10" style="enable-background:new 0 0 9 10;" xml:space="preserve">
<g>
	<path d="M7.5,7c0.4,0,0.8,0.1,1,0.4S9,8.1,9,8.5c0,0.4-0.1,0.8-0.4,1S7.9,10,7.5,10s-0.7-0.1-1-0.4S6,8.9,6,8.5c0-0.2,0-0.3,0-0.3
		L2.5,6.1c-0.3,0.3-0.6,0.4-1,0.4C1.1,6.5,0.7,6.3,0.4,6S0,5.4,0,5s0.1-0.8,0.4-1.1s0.6-0.4,1.1-0.4c0.4,0,0.7,0.1,1,0.4l3.5-2
		c0-0.2,0-0.3,0-0.4c0-0.4,0.1-0.8,0.4-1.1S7.1,0,7.5,0s0.8,0.1,1.1,0.4S9,1.1,9,1.5S8.9,2.3,8.6,2.6S7.9,3,7.5,3
		c-0.4,0-0.7-0.1-1-0.4L3,4.6C3,4.8,3,4.9,3,5s0,0.2,0,0.4l3.6,2.1C6.8,7.2,7.1,7,7.5,7z"/>
</g>
</svg>
