<?xml version="1.0" encoding="utf-8"?>
<!-- Generator: Adobe Illustrator 22.1.0, SVG Export Plug-In . SVG Version: 6.00 Build 0)  -->
<svg version="1.1" id="Layer_1" xmlns="http://www.w3.org/2000/svg" xmlns:xlink="http://www.w3.org/1999/xlink" x="0px" y="0px"
	 width="300px" height="300px" viewBox="0 0 300 300" style="enable-background:new 0 0 300 300;" xml:space="preserve">
<style type="text/css">
	.st0{fill:#BF002D;}
	.st1{fill:#FFFFFF;}
</style>
<path class="st0" d="M299.2,134.2C291.8,64,236,8.2,165.8,0.8L165,0H0v165l0.8,0.8C8.2,236,64,291.8,134.2,299.2l0.8,0.8h165V135
	L299.2,134.2z"/>
<path class="st1" d="M189.2,71.7c-11.5-7-24.5-10.4-39.2-10.4c-14.8,0-28,3.5-39.6,10.6c-11.6,7-20.5,17-26.7,30
	c-6.2,12.9-9.3,27.9-9.3,44.8v9.7c0.3,16.3,3.7,30.7,10,43.3c6.4,12.6,15.3,22.3,26.6,29c11.4,6.8,24.5,10.1,39.2,10.1
	s27.8-3.5,39.3-10.5c11.5-7,20.4-17,26.6-30c6.2-13,9.4-27.9,9.4-44.7v-8c-0.1-16.6-3.3-31.4-9.7-44.2
	C209.6,88.5,200.6,78.6,189.2,71.7z M183.2,154.3c-0.1,16.8-3,29.6-8.7,38.6c-5.7,8.9-13.8,13.4-24.3,13.4c-11.1,0-19.4-4.5-25-13.6
	c-5.6-9.1-8.4-22.1-8.4-39l0.1-12.7c1.2-31.3,12.2-47,33.1-47c10.7,0,18.9,4.5,24.6,13.4c5.7,8.9,8.6,21.9,8.6,39.1V154.3z"/>
</svg>
