<?xml version="1.0" encoding="utf-8"?>
<!-- Generator: Adobe Illustrator 22.1.0, SVG Export Plug-In . SVG Version: 6.00 Build 0)  -->
<svg version="1.1" id="Layer_1" xmlns="http://www.w3.org/2000/svg" xmlns:xlink="http://www.w3.org/1999/xlink" x="0px" y="0px"
	 width="300px" height="300px" viewBox="0 0 300 300" style="enable-background:new 0 0 300 300;" xml:space="preserve">
<style type="text/css">
	.st0{fill:#FFBE12;}
	.st1{fill:#FFFFFF;}
</style>
<g>
	<path class="st0" d="M299.2,134.2C291.8,64,236,8.2,165.8,0.8L165,0H0v165l0.8,0.8C8.2,236,64,291.8,134.2,299.2l0.8,0.8h165V135
		L299.2,134.2z"/>
	<path class="st1" d="M221.5,88.8c-5.6-9-13.5-15.9-23.6-20.8c-10.2-4.9-21.9-7.3-35.1-7.3h-69v172.8h41.7v-58.6h26.6
		c21,0,37.6-5,49.7-15.1c12.1-10.1,18.1-23.6,18.1-40.4C229.9,108,227.1,97.8,221.5,88.8z M181.3,136.7c-4.2,4-10.4,6.1-18.5,6.1
		h-27.3V92.9h27.8c7.5,0.1,13.5,2.5,17.8,7.4c4.4,4.8,6.5,11.3,6.5,19.3C187.7,127,185.5,132.6,181.3,136.7z"/>
	<path class="st0" d="M163.3,92.9h-27.8v49.9h27.3c8.1,0,14.2-2,18.5-6.1c4.2-4,6.3-9.7,6.3-17.1c0-8.1-2.2-14.5-6.5-19.3
		C176.8,95.4,170.8,93,163.3,92.9z"/>
</g>
</svg>
