<svg xmlns="http://www.w3.org/2000/svg" width="335" height="335" viewBox="0 0 334.5 334.5"><style type="text/css">.korrasvg{fill:url(#SVGID_1_)}</style><linearGradient id="SVGID_1_" gradientUnits="userSpaceOnUse" y1="167.3" x2="334.5" y2="167.3"><stop offset="0" stop-color="#8F15FF"/><stop offset="0.1409" stop-color="#8D19FF"/><stop offset="0.287" stop-color="#8826FF"/><stop offset="0.4355" stop-color="#7F3AFF"/><stop offset="0.5856" stop-color="#7357FF"/><stop offset="0.7371" stop-color="#637DFF"/><stop offset="0.8874" stop-color="#50AAFF"/><stop offset="1" stop-color="#3FD1FF"/></linearGradient><path class="korrasvg" d="M332.8 13.7c-1.5-1.3-3.6-1.6-5.4-0.8L2.9 163.7c-1.7 0.8-2.9 2.6-2.9 4.5s1.1 3.7 2.8 4.5l91.8 45.1c1.7 0.8 3.7 0.6 5.2-0.5l89.3-66.7L119 222.7c-1 1-1.5 2.4-1.4 3.9l7 90.9c0.2 2 1.5 3.7 3.4 4.4 0.5 0.2 1 0.2 1.6 0.2 1.4 0 2.8-0.6 3.8-1.7l48.7-56.5 60.3 28.8c1.3 0.6 2.8 0.7 4.2 0.1 1.3-0.6 2.3-1.7 2.8-3.1l85-270.6C334.9 17.1 334.3 15 332.8 13.7z"/></svg>
