<?xml version="1.0" encoding="utf-8"?>
<!-- Generator: Adobe Illustrator 22.0.1, SVG Export Plug-In . SVG Version: 6.00 Build 0)  -->
<svg version="1.1" id="Layer_1" xmlns="http://www.w3.org/2000/svg" xmlns:xlink="http://www.w3.org/1999/xlink" x="0px" y="0px"
	 width="7px" height="11px" viewBox="0 0 7 11" style="enable-background:new 0 0 7 11;" xml:space="preserve">
<g>
	<path d="M5.5,0c0.4,0,0.8,0.1,1.1,0.4S7,1.1,7,1.5v8c0,0.4-0.1,0.8-0.4,1.1S5.9,11,5.5,11h-4c-0.4,0-0.8-0.1-1.1-0.4S0,9.9,0,9.5
		v-8c0-0.4,0.1-0.8,0.4-1.1S1.1,0,1.5,0H5.5z M6.1,8.5v-7H0.9v7H6.1z M4.5,10V9.5h-2V10H4.5z"/>
</g>
</svg>
