<?xml version="1.0" encoding="utf-8"?>
<!-- Generator: Adobe Illustrator 21.1.0, SVG Export Plug-In . SVG Version: 6.00 Build 0)  -->
<svg version="1.1" id="Layer_1" xmlns="http://www.w3.org/2000/svg" xmlns:xlink="http://www.w3.org/1999/xlink" x="0px" y="0px"
	 viewBox="0 0 300 300" style="enable-background:new 0 0 300 300;" xml:space="preserve">
<style type="text/css">
	.st0{fill:#BF002D;}
	.st1{fill:#FFFFFF;}
</style>
<path class="st0" d="M150,0C67.2,0,0,67.2,0,150s67.2,150,150,150s150-67.2,150-150S232.8,0,150,0z"/>
<path class="st1" d="M182.6,84.9c-9.6-5.8-20.3-8.6-32.6-8.6c-12.3,0-23.3,2.9-32.9,8.8c-9.6,5.8-17,14.1-22.2,24.9
	c-5.1,10.7-7.7,23.2-7.7,37.2v8.1c0.2,13.5,3.1,25.5,8.3,36c5.3,10.5,12.7,18.5,22.1,24.1c9.5,5.6,20.3,8.4,32.6,8.4
	s23.1-2.9,32.6-8.7s16.9-14.1,22.1-24.9c5.1-10.8,7.8-23.2,7.8-37.1v-6.6c-0.1-13.8-2.7-26.1-8.1-36.7
	C199.5,99,192.2,90.7,182.6,84.9z M177.7,153.5c-0.1,14-2.5,24.6-7.2,32.1c-4.7,7.4-11.5,11.1-20.2,11.1c-9.2,0-16.1-3.7-20.8-11.3
	c-4.7-7.6-7-18.4-7-32.4l0.1-10.5c1-26,10.1-39,27.5-39c8.9,0,15.7,3.7,20.4,11.1c4.7,7.4,7.1,18.2,7.1,32.5V153.5z"/>
</svg>
