<?xml version="1.0" encoding="utf-8"?>
<!-- Generator: Adobe Illustrator 22.1.0, SVG Export Plug-In . SVG Version: 6.00 Build 0)  -->
<svg version="1.1" id="Layer_1" xmlns="http://www.w3.org/2000/svg" xmlns:xlink="http://www.w3.org/1999/xlink" x="0px" y="0px"
	 width="300px" height="300px" viewBox="0 0 300 300" style="enable-background:new 0 0 300 300;" xml:space="preserve">
<style type="text/css">
	.st0{fill:#97CC17;}
	.st1{fill:#FFFFFF;}
</style>
<path class="st0" d="M299.2,134.2C291.8,64,236,8.2,165.8,0.8L165,0H0v165l0.8,0.8C8.2,236,64,291.8,134.2,299.2l0.8,0.8h165V135
	L299.2,134.2z"/>
<polygon class="st1" points="226.8,108 166.7,132.8 171.7,63.2 130.2,63.2 135.1,131.5 73.2,106.1 60.6,142.7 123.8,160.1 
	79.6,212.9 113.1,234.8 148.8,179.7 184.3,236.8 217.9,213.9 175.4,162.5 239.4,145 "/>
</svg>
