<?xml version="1.0" encoding="utf-8"?>
<!-- Generator: Adobe Illustrator 21.1.0, SVG Export Plug-In . SVG Version: 6.00 Build 0)  -->
<svg version="1.1" id="Layer_1" xmlns="http://www.w3.org/2000/svg" xmlns:xlink="http://www.w3.org/1999/xlink" x="0px" y="0px"
	 viewBox="0 0 300 300" style="enable-background:new 0 0 300 300;" xml:space="preserve">
<style type="text/css">
	.st0{fill:#FFBE12;}
	.st1{fill:#FFFFFF;}
</style>
<path class="st0" d="M150,0C67.2,0,0,67.2,0,150s67.2,150,150,150s150-67.2,150-150S232.8,0,150,0z"/>
<path class="st1" d="M209.6,99.6c-4.8-7.8-11.7-13.8-20.4-18c-8.8-4.2-18.9-6.3-30.4-6.3H99.2v149.4h36.1V174h23
	c18.2,0,32.5-4.3,43-13.1c10.5-8.7,15.7-20.4,15.7-34.9C216.8,116.2,214.4,107.4,209.6,99.6z M174.8,141c-3.6,3.5-9,5.3-16,5.3
	h-23.6v-43.2h24c6.5,0.1,11.7,2.2,15.4,6.4c3.8,4.2,5.6,9.8,5.6,16.7C180.4,132.6,178.5,137.5,174.8,141z"/>
</svg>
