<?xml version="1.0" encoding="utf-8"?>
<!-- Generator: Adobe Illustrator 22.1.0, SVG Export Plug-In . SVG Version: 6.00 Build 0)  -->
<svg version="1.1" id="Layer_1" xmlns="http://www.w3.org/2000/svg" xmlns:xlink="http://www.w3.org/1999/xlink" x="0px" y="0px"
	 width="300px" height="300px" viewBox="0 0 300 300" style="enable-background:new 0 0 300 300;" xml:space="preserve">
<style type="text/css">
	.st0{fill:#00C2E0;}
	.st1{fill:#FFFFFF;}
</style>
<path class="st0" d="M299.2,134.2C291.8,64,236,8.2,165.8,0.8L165,0H0v165l0.8,0.8C8.2,236,64,291.8,134.2,299.2l0.8,0.8h165V135
	L299.2,134.2z"/>
<path class="st1" d="M135,97.6c4.3-3.3,10.2-4.9,17.6-4.9c7.4,0,13.2,1.9,17.5,5.8c4.3,3.9,6.5,9.3,6.5,16.4h41.5
	c0-10.5-2.7-19.9-8.2-28.1c-5.5-8.2-13.1-14.5-23-18.9c-9.9-4.4-21-6.6-33.4-6.6c-12.7,0-24.2,2-34.4,6.1
	c-10.2,4.1-18.1,9.8-23.7,17.1c-5.6,7.3-8.4,15.8-8.4,25.3c0,19.2,11.2,34.3,33.6,45.3c6.9,3.4,15.7,6.9,26.6,10.6
	c10.8,3.6,18.4,7.2,22.7,10.6c4.3,3.4,6.5,8.2,6.5,14.2c0,5.4-2,9.6-6,12.5c-4,3-9.4,4.5-16.3,4.5c-10.8,0-18.5-2.2-23.3-6.6
	c-4.8-4.4-7.2-11.2-7.2-20.5H81.9c0,11.4,2.9,21.5,8.6,30.2c5.7,8.7,14.3,15.6,25.6,20.7c11.4,5,24,7.5,38,7.5
	c19.9,0,35.5-4.3,46.9-12.9c11.4-8.6,17.1-20.5,17.1-35.6c0-18.9-9.3-33.7-28-44.5c-7.7-4.4-17.5-8.6-29.4-12.4
	c-11.9-3.8-20.3-7.6-25-11.2c-4.7-3.6-7.1-7.6-7.1-12C128.5,105.1,130.7,100.9,135,97.6z"/>
</svg>
